HIERARCHY
ROOT hips
{
  OFFSET 0 10.6860622 2.3727825e-15
  CHANNELS 6 Xposition Yposition Zposition Yrotation Xrotation Zrotation
  JOINT leftUpperLeg
  {
    OFFSET 0.6642549969 -0.9402397400000004 0
    CHANNELS 3 Yrotation Xrotation Zrotation
    JOINT leftLowerLeg
    {
      OFFSET 0 -3.997221335632195 0
      CHANNELS 3 Yrotation Xrotation Zrotation
      JOINT leftFoot
      {
        OFFSET -0.13777839790000004 -4.6145792000000005 -0.22186036399999998
        CHANNELS 3 Yrotation Xrotation Zrotation
        JOINT leftToes
        {
          OFFSET -0.03777410834999995 -0.9130806927000008 0.85230013
          CHANNELS 3 Yrotation Xrotation Zrotation
          End Site
          {
            OFFSET -0.03777410834999995 -0.9130806927000008 0.85230013
          }
        }
      }
    }
  }
  JOINT rightUpperLeg
  {
    OFFSET -0.6642778626 -0.9402397400000004 0
    CHANNELS 3 Yrotation Xrotation Zrotation
    JOINT rightLowerLeg
    {
      OFFSET 0 -3.997221452859387 0
      CHANNELS 3 Yrotation Xrotation Zrotation
      JOINT rightFoot
      {
        OFFSET 0.1377926176 -4.6145792000000005 -0.22185782299999995
        CHANNELS 3 Yrotation Xrotation Zrotation
        JOINT rightToes
        {
          OFFSET 0.037780746850000047 -0.9130806927000008 0.85230167
          CHANNELS 3 Yrotation Xrotation Zrotation
          End Site
          {
            OFFSET 0.037780746850000047 -0.9130806927000008 0.85230167
          }
        }
      }
    }
  }
  JOINT spine
  {
    OFFSET 0 0.13988381660000015 0
    CHANNELS 3 Yrotation Xrotation Zrotation
    JOINT chest
    {
      OFFSET 0 0.6191039003973773 0
      CHANNELS 3 Yrotation Xrotation Zrotation
      JOINT upperChest
      {
        OFFSET 0 0.9855186130586943 0
        CHANNELS 3 Yrotation Xrotation Zrotation
        JOINT leftShoulder
        {
          OFFSET 0.1807663869 1.5087829790000005 0
          CHANNELS 3 Yrotation Xrotation Zrotation
          JOINT leftUpperArm
          {
            OFFSET 0.5985063006419806 0 0
            CHANNELS 3 Yrotation Xrotation Zrotation
            JOINT leftLowerArm
            {
              OFFSET 2.2993332369501065 0 0
              CHANNELS 3 Yrotation Xrotation Zrotation
              JOINT leftHand
              {
                OFFSET 2.395047042602395 0 0
                CHANNELS 3 Yrotation Xrotation Zrotation
                JOINT leftIndexProximal
                {
                  OFFSET 0.5766295810000004 0.04556643899499946 0.17265095988184
                  CHANNELS 3 Yrotation Xrotation Zrotation
                  JOINT leftIndexIntermediate
                  {
                    OFFSET 0.2957229000000008 -0.019352197700001517 -0.007932640616999987
                    CHANNELS 3 Yrotation Xrotation Zrotation
                    JOINT leftIndexDistal
                    {
                      OFFSET 0.19008243099999922 -0.012484908149998475 -0.002786250786000012
                      CHANNELS 3 Yrotation Xrotation Zrotation
                      End Site
                      {
                        OFFSET 0.19008243099999922 -0.012484908149998475 -0.002786250786000012
                      }
                    }
                  }
                }
                JOINT leftMiddleProximal
                {
                  OFFSET 0.5834975091000001 0.0524350405149987 0.02204081888183999
                  CHANNELS 3 Yrotation Xrotation Zrotation
                  JOINT leftMiddleIntermediate
                  {
                    OFFSET 0.33880573540000003 -0.019871473270000717 -0.00000971183179999946
                    CHANNELS 3 Yrotation Xrotation Zrotation
                    JOINT leftMiddleDistal
                    {
                      OFFSET 0.20676022730000088 -0.012221336379999448 0.0001471936708000235
                      CHANNELS 3 Yrotation Xrotation Zrotation
                      End Site
                      {
                        OFFSET 0.20676022730000088 -0.012221336379999448 0.0001471936708000235
                      }
                    }
                  }
                }
                JOINT leftLittleProximal
                {
                  OFFSET 0.5344154683999995 -0.012880921405001189 -0.24414037221816004
                  CHANNELS 3 Yrotation Xrotation Zrotation
                  JOINT leftLittleIntermediate
                  {
                    OFFSET 0.21758961730000093 -0.011650919939999227 0.011893592810000034
                    CHANNELS 3 Yrotation Xrotation Zrotation
                    JOINT leftLittleDistal
                    {
                      OFFSET 0.1475273964999999 -0.008152365682999818 0.006001092492999946
                      CHANNELS 3 Yrotation Xrotation Zrotation
                      End Site
                      {
                        OFFSET 0.1475273964999999 -0.008152365682999818 0.006001092492999946
                      }
                    }
                  }
                }
                JOINT leftRingProximal
                {
                  OFFSET 0.5799399463000003 0.026911854694997794 -0.12150566991816003
                  CHANNELS 3 Yrotation Xrotation Zrotation
                  JOINT leftRingIntermediate
                  {
                    OFFSET 0.26167887460000006 -0.013480186499999602 0.010996293000000053
                    CHANNELS 3 Yrotation Xrotation Zrotation
                    JOINT leftRingDistal
                    {
                      OFFSET 0.17667108799999987 -0.008990287899999228 0.0055541023999999065
                      CHANNELS 3 Yrotation Xrotation Zrotation
                      End Site
                      {
                        OFFSET 0.17667108799999987 -0.008990287899999228 0.0055541023999999065
                      }
                    }
                  }
                }
                JOINT leftThumbProximal
                {
                  OFFSET 0.11018806699999972 -0.09448718900500053 0.17047963138184
                  CHANNELS 3 Yrotation Xrotation Zrotation
                  JOINT leftThumbIntermediate
                  {
                    OFFSET 0.31062601459999983 -0.08126270900000132 0.15443142000000007
                    CHANNELS 3 Yrotation Xrotation Zrotation
                    JOINT leftThumbDistal
                    {
                      OFFSET 0.21627175790000086 -0.08833193599999878 0.018771167799999988
                      CHANNELS 3 Yrotation Xrotation Zrotation
                      End Site
                      {
                        OFFSET 0.21627175790000086 -0.08833193599999878 0.018771167799999988
                      }
                    }
                  }
                }
              }
            }
          }
        }
        JOINT neck
        {
          OFFSET 0 1.5463305265074576 0
          CHANNELS 3 Yrotation Xrotation Zrotation
          JOINT head
          {
            OFFSET 0 0.8456443600000344 0
            CHANNELS 3 Yrotation Xrotation Zrotation
            JOINT leftEye
            {
              OFFSET 0.30408573140000006 0.5104519199999995 0.1276382305
              CHANNELS 3 Yrotation Xrotation Zrotation
              End Site
              {
                OFFSET 0.30408573140000006 0.5104519199999995 0.1276382305
              }
            }
            JOINT rightEye
            {
              OFFSET -0.30409491089999996 0.5104519199999995 0.1276379445
              CHANNELS 3 Yrotation Xrotation Zrotation
              End Site
              {
                OFFSET -0.30409491089999996 0.5104519199999995 0.1276379445
              }
            }
            JOINT jaw
            {
              OFFSET -3.155239131000001e-7 -0.11984121820000082 0.60178107
              CHANNELS 3 Yrotation Xrotation Zrotation
              End Site
              {
                OFFSET -3.155239131000001e-7 -0.11984121820000082 0.60178107
              }
            }
          }
        }
        JOINT rightShoulder
        {
          OFFSET -0.1807303465 1.5087829790000005 0
          CHANNELS 3 Yrotation Xrotation Zrotation
          JOINT rightUpperArm
          {
            OFFSET -0.5985063796536958 0 0
            CHANNELS 3 Yrotation Xrotation Zrotation
            JOINT rightLowerArm
            {
              OFFSET -2.2993322059002854 0 0
              CHANNELS 3 Yrotation Xrotation Zrotation
              JOINT rightHand
              {
                OFFSET -2.395045314457259 0 0
                CHANNELS 3 Yrotation Xrotation Zrotation
                JOINT rightIndexProximal
                {
                  OFFSET -0.5764487688300002 0.0441371204405987 0.17361932004999997
                  CHANNELS 3 Yrotation Xrotation Zrotation
                  JOINT rightIndexIntermediate
                  {
                    OFFSET -0.29573011380000047 -0.01934826376999843 -0.007698921482999974
                    CHANNELS 3 Yrotation Xrotation Zrotation
                    JOINT rightIndexDistal
                    {
                      OFFSET -0.19008373999999884 -0.012503266380000655 -0.0026365778999999897
                      CHANNELS 3 Yrotation Xrotation Zrotation
                      End Site
                      {
                        OFFSET -0.19008373999999884 -0.012503266380000655 -0.0026365778999999897
                      }
                    }
                  }
                }
                JOINT rightMiddleProximal
                {
                  OFFSET -0.5834852037300005 0.05211639405060153 0.02307162440000001
                  CHANNELS 3 Yrotation Xrotation Zrotation
                  JOINT rightMiddleIntermediate
                  {
                    OFFSET -0.33880114510000003 -0.019952774050000954 0.0002455003561999819
                    CHANNELS 3 Yrotation Xrotation Zrotation
                    JOINT rightMiddleDistal
                    {
                      OFFSET -0.20675694929999955 -0.012273788999999091 0.00030209124000002766
                      CHANNELS 3 Yrotation Xrotation Zrotation
                      End Site
                      {
                        OFFSET -0.20675694929999955 -0.012273788999999091 0.00030209124000002766
                      }
                    }
                  }
                }
                JOINT rightLittleProximal
                {
                  OFFSET -0.5346811737299992 -0.011214256288399227 -0.24363941305000003
                  CHANNELS 3 Yrotation Xrotation Zrotation
                  JOINT rightLittleIntermediate
                  {
                    OFFSET -0.21757715980000092 -0.011771559690000988 0.01201554387
                    CHANNELS 3 Yrotation Xrotation Zrotation
                    JOINT rightLittleDistal
                    {
                      OFFSET -0.1475201849000004 -0.00822055339600003 0.006082065407000015
                      CHANNELS 3 Yrotation Xrotation Zrotation
                      End Site
                      {
                        OFFSET -0.1475201849000004 -0.00822055339600003 0.006082065407000015
                      }
                    }
                  }
                }
                JOINT rightRingProximal
                {
                  OFFSET -0.5800810755299999 0.027657985680600072 -0.12066365025000003
                  CHANNELS 3 Yrotation Xrotation Zrotation
                  JOINT rightRingIntermediate
                  {
                    OFFSET -0.26166445029999974 -0.013623118409999302 0.011164098990000045
                    CHANNELS 3 Yrotation Xrotation Zrotation
                    JOINT rightRingDistal
                    {
                      OFFSET -0.17666387530000027 -0.009072900100000503 0.005668185599999959
                      CHANNELS 3 Yrotation Xrotation Zrotation
                      End Site
                      {
                        OFFSET -0.17666387530000027 -0.009072900100000503 0.005668185599999959
                      }
                    }
                  }
                }
                JOINT rightThumbProximal
                {
                  OFFSET -0.10997596379000074 -0.09577489355940072 0.16989765924999997
                  CHANNELS 3 Yrotation Xrotation Zrotation
                  JOINT rightThumbIntermediate
                  {
                    OFFSET -0.31036620999999986 -0.08229339117999834 0.15440884469999996
                    CHANNELS 3 Yrotation Xrotation Zrotation
                    JOINT rightThumbDistal
                    {
                      OFFSET -0.21631306399999906 -0.08825326400000111 0.018656797720000014
                      CHANNELS 3 Yrotation Xrotation Zrotation
                      End Site
                      {
                        OFFSET -0.21631306399999906 -0.08825326400000111 0.018656797720000014
                      }
                    }
                  }
                }
              }
            }
          }
        }
      }
    }
  }
}
MOTION
Frames: 7
Frame Time: 0.03333333333333333
0 11.682712981546562 0 0 0 0 0 0 -5.826343164929014 -0.3712483961610101 -3.6333298826370974 5.838118207697276 0 0 0 0 0 0 0 0 5.826343164929014 0.3712483961610101 -3.6333298826370974 -5.838118207697276 0 0 0 0 0 0 0 -4.610651315171937 0 0 3.0831277533083026 0 0 0 0 0 1.5275236235667615 0 0 0 0 0 0 0 0 0 0 0 0 0 0 0 0 0 0 0 0 0 0 0 0 0 0 0 0 0 0 0 0 0 0 0 0 0 0 0 0 0 0 0 0 0 0 0 0 0 0 0 0 0 0 0 0 1.5275236235667615 0 0 0 0 0 0 0 0 0 0 0 0 0 0 1.5275236235667615 0 0 0 0 0 0 0 0 0 0 0 0 0 0 0 0 0 0 0 0 0 0 0 0 0 0 0 0 0 0 0 0 0 0 0 0 0 0 0 0 0 0 0 0 0 0 0 0 0 0 0 0 0 0 0
0 -10.021630262118268 0.2555604368149332 0 -82.00038557774673 0 47.08446205913708 -23.046860019681695 -2.430892565036637 4.452572129912583 41.520596853156064 8.540420854152645 -0.27751685496395423 18.17430203980621 0.8002854581140286 0 0 0 -47.08797330141642 -23.04840207910719 2.428332997652978 -4.45845278488407 41.51999020850304 -8.54648964440714 0.27329416267984963 18.17428406774473 -0.8045026631067635 0 0 0 -0.020015570171427122 -13.139234938199783 -0.017960758290560146 -0.7223000709322632 -3.725415627359613 -0.12232598572889442 0 0 0 -0.14710474151677708 16.19440584485543 -15.380235726329051 -19.969483473388493 -50.396613524155796 -55.55450803727752 -7.37950077810936 33.56058797427853 -18.32987666425208 21.874436060194228 -10.677951518154643 -46.107306649017 0 0 0 0 0 0 0 0 0 0 0 0 0 0 0 0 0 0 0 0 0 0 0 0 0 0 0 0 0 0 0 0 0 0 0 0 0 0 0 0 0 0 0 0 0 0 19.52587217553456 0 0 8.99856659418915 0 0 0 0 0 0 0 0 0 0 0.14306164993269455 16.194877042101158 15.376061544003521 19.96773810218285 -50.39390818142903 55.55036542239459 7.3743344231108185 33.56140763197773 18.324673516773892 -21.877382847438895 -10.67727905380647 46.103806694636 0 0 0 0 0 0 0 0 0 0 0 0 0 0 0 0 0 0 0 0 0 0 0 0 0 0 0 0 0 0 0 0 0 0 0 0 0 0 0 0 0 0 0 0 0
0 -10.012493518222332 0.2555604368149332 0 -82.00038557774673 0 46.85568206146119 -22.946812294685873 -2.3599465312469623 4.452572129912583 41.52059229189685 8.540421417987774 -0.13517774893498052 18.16135185197811 0.6758146833534584 0 0 0 -46.729934635603904 -22.941540674029795 2.3727608363381143 -4.45845278488407 41.51999020850304 -8.54648896655634 0.017848573614808426 18.171340269050393 -0.6202356217750339 0 0 0 -0.02003634064036954 -12.972585360659629 -0.01798494659518268 -0.7226966519067506 -4.196212563465376 -0.11630638912727412 0 0 0 0.060467624853647435 16.576779275180666 -15.207183395518 -19.99696866035997 -50.427315251214694 -55.71336038708439 -7.455879230583971 33.539136199430885 -18.441960960762152 21.874436060194228 -10.677951518154643 -46.107306649017 0 0 0 0 0 0 0 0 0 0 0 0 0 0 0 0 0 0 0 0 0 0 0 0 0 0 0 0 0 0 0 0 0 0 0 0 0 0 0 0 0 0 0 0 0 0 19.52587217553456 0 -0.07117793510936708 9.033621955069004 -0.014232953106261324 0 0 0 0 0 0 0 0 0 -0.07769569482851839 16.574748269443006 15.192450821408427 19.996049026430523 -50.42448486517871 55.71275743516071 7.4526806354488375 33.53861994726464 18.439896289228503 -21.87737993998713 -10.67727905380647 46.103806694636 0 0 0 0 0 0 0 0 0 0 0 0 0 0 0 0 0 0 0 0 0 0 0 0 0 0 0 0 0 0 0 0 0 0 0 0 0 0 0 0 0 0 0 0 0
0 -10.003356774326393 0.2555604368149332 0 -82.00038557774673 0 46.62720128894139 -22.846506807874157 -2.289486983238797 4.452571491586207 41.52059229189685 8.540420740608386 0.007180205611490524 18.148695525682605 0.5513195375833422 0 0 0 -46.37228714969315 -22.8343596636008 2.3179585194703503 -4.458452500670683 41.51999020850304 -8.54648896655634 -0.2376019194583552 18.169178280016755 -0.4359593399241891 0 0 0 -0.02005716973707978 -12.805936174518028 -0.018009180683539586 -0.7231431368271394 -4.6670099687063065 -0.11027967983029546 0 0 0 0.2696639056739616 16.95854639457757 -15.032333546376918 -20.024336144222445 -50.458063717952136 -55.87229008967201 -7.532188340560077 33.51756276396747 -18.553980433470503 21.874436060194228 -10.677951518154643 -46.107306649017 0 0 0 0 0 0 0 0 0 0 0 0 0 0 0 0 0 0 0 0 0 0 0 0 0 0 0 0 0 0 0 0 0 0 0 0 0 0 0 0 0 0 0 0 0 0 19.525873987273783 0 -0.14237161493996656 9.068658247108871 -0.028511381489419965 0 0 0 0 0 0 0 0 0 -0.3001654683562732 16.95393356230294 15.006946178993669 20.024239395041825 -50.4551081229703 55.87523112666951 7.530950541557109 33.515703095731155 18.555051043434805 -21.877378327493386 -10.67727905380647 46.10380178078232 0 0 0 0 0 0 0 0 0 0 0 0 0 0 0 0 0 0 0 0 0 0 0 0 0 0 0 0 0 0 0 0 0 0 0 0 0 0 0 0 0 0 0 0 0
0 -9.985083018142248 0.2555604368149332 0 -82.00038557774673 0 46.17104378167234 -22.645068095216956 -2.1499906859600015 4.452572129912583 41.520596853156064 8.540420854152645 0.29201677790831304 18.12424982786651 0.3022009059555209 0 0 0 -45.657743078319136 -22.618940456584827 2.21060001909852 -4.45845278488407 41.51999020850304 -8.54648964440714 -0.7488327794809334 18.167196030972285 -0.0671592924893592 0 0 0 -0.0200992520946391 -12.47258874741041 -0.018059134179052742 -0.7241884080214299 -5.6096240286624015 -0.0981891340173315 0 0 0 0.6934486156664963 17.72096389786193 -14.676804701306903 -20.078744489435977 -50.51970127115176 -56.19042114021595 -7.68459542401741 33.474026698352475 -18.77783212265616 21.874436060194228 -10.677951518154643 -46.107306649017 0 0 0 0 0 0 0 0 0 0 0 0 0 0 0 0 0 0 0 0 0 0 0 0 0 0 0 0 0 0 0 0 0 0 0 0 0 0 0 0 0 0 0 0 0 0 19.52587217553456 0 -0.28482536630343913 9.138686626000574 -0.05720782272349357 0 0 0 0 0 0 0 0 0 -0.7508018374499228 17.710961434542448 14.629776217127482 20.08027331452397 -50.51653235416351 56.200492984409145 7.687271175704387 33.469474100581564 18.785169641864478 -21.877382847438895 -10.677278184990447 46.103806694636 0 0 0 0 0 0 0 0 0 0 0 0 0 0 0 0 0 0 0 0 0 0 0 0 0 0 0 0 0 0 0 0 0 0 0 0 0 0 0 0 0 0 0 0 0
0 -9.975946140050176 0.2555604368149332 0 -82.00038557774673 0 45.943346794334936 -22.5439391637223 -2.080951785170875 4.452572129912583 41.520596853156064 8.540420854152645 0.43449000442168073 18.11246931694216 0.17758209065696448 0 0 0 -45.30084694074893 -22.51070685888995 2.1580441995654445 -4.458453423669036 41.519994769719816 -8.54648964440714 -1.0045902713144141 18.167379338643105 0.11734493426256776 0 0 0 -0.020120077468492596 -12.30589561777048 -0.018083907868486567 -0.7247871408436192 -6.08138286765451 -0.09212383196866894 0 0 0 0.9080698124222838 18.1015483034524 -14.496095215022955 -20.1057724395131 -50.550601308640104 -56.34964063389165 -7.760700387395582 33.452080630062135 -18.889674171632812 21.874436060194228 -10.677951518154643 -46.107306649017 0 0 0 0 0 0 0 0 0 0 0 0 0 0 0 0 0 0 0 0 0 0 0 0 0 0 0 0 0 0 0 0 0 0 0 0 0 0 0 0 0 0 0 0 0 0 19.52587217553456 0 -0.35608462959219284 9.173677865515808 -0.07162626631825962 0 0 0 0 0 0 0 0 0 -0.9790031065050472 18.088729241922525 14.438073579399783 20.108121235077718 -50.54731745342544 56.363261792270755 7.765319613816584 33.446162160374996 18.90013164494303 -21.877382847438895 -10.677278184990447 46.103806694636 0 0 0 0 0 0 0 0 0 0 0 0 0 0 0 0 0 0 0 0 0 0 0 0 0 0 0 0 0 0 0 0 0 0 0 0 0 0 0 0 0 0 0 0 0
0 -9.966809261958103 0.2555604368149332 0 -82.00038557774673 0 45.71595003008436 -22.442559118898973 -2.012398393250947 4.452572129912583 41.520596853156064 8.540420854152645 0.5769804362661652 18.100982419835734 0.052941101317903416 0 0 0 -44.9443418025086 -22.402171919211284 2.106259533606264 -4.4584537078824455 41.519994769719816 -8.54649032225805 -1.2603466540199246 18.168342605644757 0.30184707048394155 0 0 0 -0.02014096458283018 -12.139202544304188 -0.01810872723348064 -0.7254367495329109 -6.553141696335448 -0.08604803398944923 0 0 0 1.1244269476512734 18.48148274666399 -14.31348695269593 -20.132680974320113 -50.58155388128461 -56.50894196517682 -7.836734522266918 33.430005074931714 -19.00145478844453 21.874436060194228 -10.677951518154643 -46.107306649017 0 0 0 0 0 0 0 0 0 0 0 0 0 0 0 0 0 0 0 0 0 0 0 0 0 0 0 0 0 0 0 0 0 0 0 0 0 0 0 0 0 0 0 0 0 0 19.525873987273783 0 -0.4273598600669217 9.208650933398062 -0.08609021524135416 0 0 0 0 0 0 0 0 0 -1.209032626105236 18.465765967187064 14.244368214134033 20.135850012562702 -50.57814955474366 56.52611045076214 7.843291301880112 33.422721455787105 19.015025830490217 -21.877382847438895 -10.677278184990447 46.103806694636 0 0 0 0 0 0 0 0 0 0 0 0 0 0 0 0 0 0 0 0 0 0 0 0 0 0 0 0 0 0 0 0 0 0 0 0 0 0 0 0 0 0 0 0 0
